<svg width="19" height="19" viewBox="0 0 19 19" fill="none" xmlns="http://www.w3.org/2000/svg">
<path d="M17.6431 4.66893C16.9917 4.92227 16.3765 5.10322 15.725 5.1756C16.4489 4.74131 16.9555 4.12607 17.2089 3.32988C16.5212 3.72798 15.8336 3.98131 15.0736 4.12607C14.4222 3.43846 13.5898 3.07655 12.6489 3.07655C11.7079 3.07655 10.9117 3.40227 10.2603 4.05369C9.60885 4.70512 9.28314 5.50131 9.28314 6.40608C9.28314 6.65941 9.31933 6.91274 9.39171 7.20227C8.01647 7.12988 6.71361 6.76798 5.51933 6.15274C4.32504 5.5375 3.31171 4.70512 2.47933 3.69179C2.1898 4.19846 2.04504 4.7775 2.04504 5.39274C2.04504 5.9356 2.15361 6.47846 2.44314 6.98512C2.69647 7.4556 3.05837 7.85369 3.52885 8.14322C2.98599 8.14322 2.47933 7.99846 2.00885 7.74512V7.78131C2.00885 8.5775 2.26218 9.30131 2.76885 9.91655C3.27552 10.4956 3.92695 10.8937 4.68695 11.0385C4.39742 11.147 4.1079 11.1832 3.81837 11.1832C3.63742 11.1832 3.42028 11.147 3.16695 11.1108C3.38409 11.7985 3.78218 12.3413 4.36123 12.7756C4.94028 13.2099 5.59171 13.427 6.31552 13.427C5.08504 14.368 3.7098 14.8746 2.15361 14.8746C1.86409 14.8746 1.61076 14.8385 1.35742 14.8023C2.91361 15.8156 4.61456 16.3223 6.49647 16.3223C7.65456 16.3223 8.77647 16.1413 9.82599 15.7432C10.8755 15.3813 11.7441 14.8746 12.5041 14.2594C13.2279 13.608 13.8793 12.8842 14.386 12.0518C14.9289 11.2556 15.3269 10.387 15.5803 9.48227C15.8698 8.61369 15.9784 7.70893 15.9784 6.80417V6.36988C16.6298 5.89941 17.1727 5.32036 17.6431 4.66893Z" fill="#858997"/>
</svg>
