<svg width="496" height="512" viewBox="0 0 496 512" fill="none" xmlns="http://www.w3.org/2000/svg">
<mask id="path-1-inside-1_168_306" fill="white">
<path d="M0 0H488C492.418 0 496 3.58172 496 8V504C496 508.418 492.418 512 488 512H0V0Z"/>
</mask>
<path d="M0 0H488C492.418 0 496 3.58172 496 8V504C496 508.418 492.418 512 488 512H0V0Z" fill="#4F46E5"/>
<path d="M0 0H496H0ZM496 512H0H496ZM0 512V0V512ZM488 0C492.971 0 497 4.02944 497 9V503C497 507.971 492.971 512 488 512C491.866 512 495 508.418 495 504V8C495 3.58172 491.866 0 488 0Z" fill="#CBD5E1" mask="url(#path-1-inside-1_168_306)"/>
</svg>
